<?xml version="1.0" encoding="UTF-8"?>
<svg width="33px" height="33px" viewBox="0 0 33 33" version="1.1" xmlns="http://www.w3.org/2000/svg" xmlns:xlink="http://www.w3.org/1999/xlink">
    <title>Contact/Call</title>
    <g id="Welcome" stroke="none" stroke-width="1" fill="none" fill-rule="evenodd">
        <g id="Navbar_Contact-us" transform="translate(-855.000000, -172.000000)" stroke-width="2.20000005">
            <g id="Contact/Call" transform="translate(857.000000, 174.000000)">
                <path d="M18.518771,29.2588417 L18.518771,29.2588417 C20.5070109,30.1266929 22.8256139,29.6907491 24.3602361,28.1568725 L26.4000006,26.1204497 L21.9092859,21.6338609 L17.5034351,24.3544734 L16.8992849,23.9094474 C12.6480076,20.7851831 8.89480062,17.0362679 5.76594945,12.7898518 L5.32243455,12.1874017 L8.04414105,7.78658886 L3.55342634,3.30000007 L1.54498071,5.30816734 C-0.00479574909,6.85516253 -0.435176956,9.19936985 0.465996839,11.1954276 L0.650878907,11.6061432 C4.21112157,19.4985433 10.5789449,25.7894553 18.518771,29.2588417 Z" id="Stroke-1" stroke="#737387"></path>
                <path d="M15.4000003,6.60000014 C17.3741862,6.60000014 19.3493366,7.40321907 20.8557745,9.00965693 C22.2368367,10.4813679 22.984269,12.3737147 23.1000005,14.3000003" id="Stroke-3" stroke="#F72697"></path>
                <path d="M14.3000003,0 C18.2491698,0 22.1983393,1.49112166 25.2112252,4.47439052 C27.9734689,7.20948094 29.4690369,10.7219236 29.7000006,14.3000003" id="Stroke-5" stroke="#F72697"></path>
            </g>
        </g>
    </g>
</svg>