<?xml version="1.0" encoding="UTF-8"?>
<svg width="39px" height="25px" viewBox="0 0 39 25" version="1.1" xmlns="http://www.w3.org/2000/svg" xmlns:xlink="http://www.w3.org/1999/xlink">
    <title>Email</title>
    <g id="Welcome" stroke="none" stroke-width="1" fill="none" fill-rule="evenodd">
        <g id="Navbar_Contact-us" transform="translate(-856.000000, -235.000000)">
            <g id="Email" transform="translate(857.000000, 237.000000)">
                <path d="M23.2589857,21.5074303 L3.95061351,21.5074303 C2.01187741,21.5074303 0.440000377,20.0337956 0.440000377,18.2162305 L0.440000377,3.40583134 C0.440000377,1.58826625 2.01187741,0.114631532 3.95061351,0.114631532 L23.2589857,0.114631532 C25.1985995,0.114631532 26.7695988,1.58826625 26.7695988,3.40583134 L26.7695988,18.2162305 C26.7695988,20.0337956 25.1985995,21.5074303 23.2589857,21.5074303 Z" id="Stroke-723" stroke="#737387" stroke-width="2.66200012"></path>
                <rect id="Rectangle" fill="#FFFFFF" x="24" y="10" width="5" height="8"></rect>
                <g id="noun_left-arrow_3401920" transform="translate(29.800001, 14.300000) rotate(-180.000000) translate(-29.800001, -14.300000) translate(22.300001, 8.800000)" fill="#F72697" fill-rule="nonzero">
                    <path d="M13.0628774,6.59726064 L4.04460335,6.59726064 L6.77812572,9.15266496 C7.20006022,9.59102623 7.18022678,10.2607499 6.73299181,10.6767192 C6.28575684,11.0926885 5.56765683,11.1093103 5.09885009,10.7145444 L0.350823565,6.28167039 C0.126377095,6.07544176 0,5.79386085 0,5.5 C0,5.20613939 0.126377095,4.92455848 0.350823565,4.71832984 L5.09885009,0.285455794 C5.56765683,-0.109310028 6.28575684,-0.0926882693 6.73299181,0.323281039 C7.18022678,0.739250347 7.20006022,1.40897401 6.77812572,1.84733528 L4.04460335,4.4027396 L13.0628774,4.4027396 C13.4970926,4.38181888 13.9082759,4.58598105 14.1321184,4.93364287 C14.3559609,5.28130469 14.3559609,5.71577341 14.1321184,6.06343523 C13.9082759,6.41109705 13.4970926,6.61525923 13.0628774,6.59433851 L13.0628774,6.59726064 Z" id="Path"></path>
                </g>
                <path d="M0.440000377,3.40583134 L11.9530561,9.57364888 C12.986054,10.126425 14.2244228,10.126425 15.2574207,9.57364888 L26.7695988,3.40583134" id="Stroke-724" stroke="#737387" stroke-width="2.66200012"></path>
            </g>
        </g>
    </g>
</svg>