<?xml version="1.0" encoding="UTF-8"?>
<svg width="136px" height="47px" viewBox="0 0 136 47" version="1.1" xmlns="http://www.w3.org/2000/svg" xmlns:xlink="http://www.w3.org/1999/xlink">
    <title>Goose Logo_Black_Home</title>
    <defs>
        <path d="M0.0285637439,25.6161337 L0.0285637439,21.6031959 C1.04936398,9.57087009 11.1663249,0.122484848 23.4955836,0.122484848 C36.5030366,0.122484848 47.0478187,10.6381414 47.0478187,23.6096667 C47.0478187,35.8590679 37.6444115,45.9180022 25.643665,47 L21.3475775,47 C10.0093609,45.9777023 0.989412366,36.941759 0.0285637439,25.6161337" id="path-1"></path>
        <path d="M29.3207177,15.9996898 C29.2501729,16.1070067 29.0053408,16.142779 28.8414278,16.1312056 C27.4450549,16.0365142 26.0497195,15.9239367 24.6263736,15.8134634 C24.6865442,16.5531084 24.7664259,17.1854365 24.7871744,17.8198689 C24.8867671,20.9594148 23.7684239,23.5097697 21.2080612,25.3004893 C18.7659648,27.0080908 16.0012295,27.5299456 13.0995543,27.441567 C10.8255206,27.3731788 8.63966802,26.8744707 6.57104434,25.8907323 C4.35510643,24.8375536 2.50849151,23.3330125 1.26773227,21.1414327 C0.576289096,19.9278046 0.164950434,18.5716134 0.0643202951,17.1738631 C0.0549834781,17.0497122 0.0217859064,16.9287176 0,16.8056188 L0,15.1401023 C0.0238607546,15.0191078 0.0601705986,14.8991653 0.0705448398,14.7771186 C0.267655422,12.6055293 0.933681703,10.6001759 2.09767156,8.77263192 C3.77622378,6.14021106 6.13013909,4.3168756 8.845078,2.95647586 C12.1762468,1.29095939 15.7200876,0.428215542 19.4060555,0.14414135 C20.0544456,0.0936392709 20.7028356,0.0473456988 21.3512257,0 L22.3855375,0 C23.1044725,0.151506236 23.8441558,0.236728494 24.5361177,0.470300608 C25.6378621,0.844857691 26.576731,1.47402942 27.0155614,2.66293252 C27.0280105,2.6976527 27.0383847,2.73552926 27.0487589,2.77130157 C27.3039653,3.60879437 27.2489818,3.79817717 26.5487205,4.29267669 C25.5766541,4.97761113 24.5174441,5.52471698 23.3991009,5.91821234 C21.9767924,6.42533738 20.9601168,5.82141669 20.6872743,4.31056284 C20.6737878,4.23586185 20.6478521,4.16010873 20.6551141,4.08645987 C20.6997234,3.57512632 20.3677476,3.4793828 19.9807884,3.41204669 C18.9112042,3.22582028 17.8447322,3.29526063 16.780335,3.42888072 C14.0000384,3.77923889 11.4033659,4.70721458 8.99239222,6.15704509 C6.34281104,7.75101695 4.1341351,9.80161177 2.77199723,12.6875951 C2.1983017,13.9038535 1.88188734,15.1906044 1.78229463,16.5352223 C1.61423192,18.8267541 2.61015907,20.4933227 4.44639975,21.6885385 C6.0315838,22.7217269 7.79831707,23.2246434 9.64389457,23.4750496 C12.1243756,23.8096258 14.5789211,23.6854749 16.9961193,23.0121138 C18.6871206,22.5407611 20.2671175,21.8316278 21.545224,20.5564503 C22.6511181,19.4517173 23.1999155,18.1060473 23.1169215,16.5110233 C23.1075847,16.3395267 23.0629755,16.1701343 23.0194037,15.9134154 C21.1105433,16.2280013 19.2338431,16.549952 17.3519557,16.8392869 C16.2714785,17.0081532 15.1863329,17.1454557 14.0975563,17.2496162 C13.3806962,17.3159002 12.6679859,17.2033227 12.0144087,16.8666421 C10.9925459,16.3405788 10.5578652,15.3799872 10.2902098,14.315235 C10.2673865,14.2226479 10.349343,14.0764023 10.4250749,13.9964407 C10.4676093,13.9501471 10.6242604,13.9522514 10.6802813,13.9964407 C11.5081457,14.6466549 12.460501,14.5456508 13.377584,14.4025616 C15.1629909,14.1248001 16.9380235,13.7765462 18.7130562,13.4367093 C21.3180281,12.9380013 23.9333743,12.5529229 26.5933297,12.6434058 C26.9989626,12.6570835 27.403558,12.6960122 27.8081534,12.7338887 C28.1152309,12.7633483 28.3040421,12.919063 28.4160839,13.2410138 C28.6795896,13.9985449 28.996004,14.7360857 29.2740337,15.4883563 C29.3331668,15.6493316 29.3933374,15.8881644 29.3207177,15.9996898 Z M62.9104357,14.5898401 C61.9954276,16.0133674 61.6354415,17.6231212 61.4767156,19.2991589 C63.1843157,17.9745315 64.4769461,16.375299 64.9686852,14.2552638 C65.0236686,14.0174832 64.9551986,13.6239878 64.7902482,13.5019412 C64.6190732,13.3746338 64.1843925,13.3830508 63.999731,13.5145667 C63.5878737,13.8102143 63.180166,14.1689894 62.9104357,14.5898401 Z M67.8475371,20.3060441 C68.2718435,22.1588391 67.8050027,23.7927918 66.4096673,25.0974288 C64.1128103,27.2469236 60.5160609,26.4210042 59.2815262,23.4981964 C58.7462153,22.2314359 58.6341735,20.9047042 58.7514024,19.2549696 C58.9298394,17.3369428 59.5720049,15.2758267 60.9486667,13.4798465 C61.607431,12.6213112 62.4103973,11.9174384 63.4872435,11.6039047 C65.572466,10.9968276 67.2852532,12.0784138 66.966764,14.4720019 C66.7115577,16.3826639 65.5921771,17.8219731 64.1304465,19.0024592 C63.3803888,19.6084842 62.517252,20.0861497 61.6842004,20.5890662 C61.4414432,20.7363639 61.3377008,20.8678798 61.3501499,21.1509018 C61.3843848,21.9684042 61.4767156,22.7732811 61.820103,23.5276559 C62.4529317,24.9154109 63.8534542,25.2047458 64.9946208,24.1799744 C66.112964,23.1772977 66.4366403,21.8810777 66.3743948,20.4564982 C66.3619457,20.1871538 66.3007377,19.9199137 66.2550911,19.6537256 C66.1949205,19.2970547 66.3059248,19.1886856 66.6845846,19.2433962 C67.3184508,19.3380876 67.7116345,19.7126447 67.8475371,20.3060441 Z M52.6285253,13.7218356 C52.2125183,14.1332171 52.0143702,14.7213559 52.0963268,15.3052862 C53.2177822,15.5546402 54.3682856,15.5230764 55.5001153,15.0001695 C55.6417237,14.9344116 55.7822946,14.8660233 55.9213095,14.7950048 C55.886037,14.6918964 55.8466149,14.5435465 55.7449474,14.3741541 C55.1038193,13.2978286 53.623415,12.7075855 52.6285253,13.7218356 Z M45.6082763,23.611826 L45.6082763,23.6107739 C46.5409206,21.5044164 46.8583724,19.3054717 46.3718205,17.0223569 C46.351072,16.9203006 46.3230616,16.8203486 46.2940137,16.7225008 C45.7047568,16.9276655 45.0885269,17.0423473 44.4660724,17.0623377 C43.8986014,17.0854845 43.3280181,17.0612856 42.7574349,17.0192005 C42.0535426,18.9645827 41.897929,21.0704141 42.3071928,23.1004925 C42.4109352,23.6276079 42.6568047,24.1578798 42.9545455,24.6060857 C43.3819642,25.2520915 44.1704065,25.3278446 44.7306155,24.7954685 C45.0823023,24.4629965 45.4122032,24.0537192 45.6082763,23.611826 Z M45.7690771,13.5619124 C44.6403596,13.8449344 43.924537,14.6035177 43.4058249,15.544119 C44.4733344,15.5220243 45.5885653,15.3147554 46.2182817,14.5151391 C46.4091678,14.2742021 46.5689311,13.8565078 46.590717,13.4787944 C46.3189119,13.467221 46.0450319,13.4914199 45.7690771,13.5619124 Z M34.8169907,23.6170867 L34.8180281,23.6170867 C35.7506724,21.5117813 36.0712365,19.3128366 35.585722,17.0297218 C35.5577115,16.9024145 35.5473373,16.8003582 35.544225,16.716188 L35.3180665,16.6709466 C34.3501499,16.4794595 33.3687466,16.2427311 32.4392146,15.8839559 C31.9080535,16.8982059 31.6123876,18.0060953 31.4484746,19.1539655 C31.2275033,20.6921746 31.1870437,22.2345923 31.6901944,23.7349248 C31.7980865,24.0484586 31.9547376,24.342528 32.153923,24.6060857 C32.6228387,25.2289447 33.3749712,25.3299488 33.9382925,24.799677 C34.2899793,24.4682571 34.621955,24.0589799 34.8169907,23.6170867 Z M35.3854991,13.4935241 C34.4321064,13.5724336 33.6820487,14.0858714 33.0751556,14.8728622 L33.3054638,14.9643972 C33.3396988,14.9780748 33.3749712,14.9896482 33.4092062,15.0022737 C33.4558903,15.0064823 33.5015369,15.0085865 33.5534081,15.0180556 C34.020249,15.0917045 34.8999846,14.9728142 35.2340352,14.5656412 C35.4643433,14.2847234 35.5058403,13.8417781 35.3854991,13.4935241 Z M56.3736264,19.8546818 C57.0790748,20.4512376 58.0366172,21.2035082 58.2907861,22.1525264 C58.5740029,23.2109658 57.5075309,24.1305245 56.7937831,24.7323409 C55.8144548,25.5593124 54.4875893,26.3536681 53.1700607,26.3052702 C51.634673,26.2484554 50.3617536,25.0006332 49.4010989,23.8990566 C48.9778299,23.4140262 50.7621993,22.0715126 51.2508261,22.631244 C52.0164451,23.5087176 52.9708753,24.5071858 54.1535388,24.7376015 C54.8517252,24.874378 56.3020441,24.3398977 56.4286099,23.4960921 C56.5873357,22.4387048 54.3485745,20.9657275 53.7053716,20.4743844 C52.7094444,19.714749 51.4593483,19.0771602 50.7704987,17.9850528 C50.506993,17.5684106 50.3378929,17.1317781 50.2580112,16.6898849 C49.8103627,16.5652079 49.3715323,16.4100192 48.9446323,16.225897 C48.9633059,16.4394787 48.9949474,16.6514823 49.0380005,16.8613815 C49.2890571,17.9997825 48.3833858,22.7196226 46.6291017,24.8028334 C44.7627757,27.0196642 41.5892953,26.3210521 40.4740644,23.8148865 C39.8599093,22.4355484 39.6918466,20.9825616 39.7852148,19.4938024 C39.8303427,18.7399536 39.932529,17.9908395 40.0902175,17.2527726 C39.4957735,17.28118 38.8836932,17.247512 38.2768001,17.1791238 C38.1948436,17.2685545 38.1523092,17.3695587 38.1523092,17.5484202 C38.1585338,20.2187176 37.5983248,22.7133099 35.845078,24.7975728 C33.9766772,27.0217685 30.8042342,26.3189479 29.6869285,23.8211992 C29.2522478,22.8421954 29.0151963,21.7848081 28.9897795,20.7111129 C28.9140475,18.1670707 29.4420964,15.7640134 30.7534004,13.5776943 C31.4059402,12.4887432 32.2358795,11.5807579 33.4880504,11.2019923 C34.272343,10.9652638 35.052486,11.0241829 35.8066933,11.3366645 C36.6366326,11.6796578 37.4136633,12.595008 37.4064013,13.567173 C37.5879505,14.1100704 37.4883578,14.5635369 37.2155153,14.9307291 C38.305848,15.2653054 39.4843618,15.3473713 40.6379774,15.4104989 L40.6960732,15.262149 C41.2344963,13.4167189 42.4980788,11.5365686 44.2492507,11.1735849 C44.3519557,11.1525424 44.4556981,11.1372865 44.560478,11.1283435 C45.2456966,10.9863064 45.9573696,11.0594292 46.6000538,11.3387688 C47.1104665,11.5502462 47.505725,11.9900352 47.7225467,12.5213591 C47.9481864,12.8054333 48.1115807,13.1358011 48.2007992,13.4893156 C48.921809,13.957512 49.6915777,14.4099264 50.4903942,14.7623889 C50.6278529,14.4456988 50.8068086,14.1495251 51.0225928,13.8817589 C52.5610928,11.9668884 56.2937447,10.4223665 57.7098286,13.3115062 C58.6414355,15.2105948 55.6578037,16.2122194 54.2977407,16.6551647 C53.8174134,16.8114055 53.3210059,16.9103054 52.8183739,16.9508123 C53.0657996,17.280654 53.3573158,17.5741973 53.6846231,17.8219731 C54.5861446,18.4953342 55.5125644,19.125558 56.3736264,19.8546818 Z" id="path-3"></path>
    </defs>
    <g id="Symbols" stroke="none" stroke-width="1" fill="none" fill-rule="evenodd">
        <g id="Navbar" transform="translate(-152.000000, -16.000000)">
            <g id="Goose-Logo_Black_Home" transform="translate(152.000000, 16.000000)">
                <g id="Group-11">
                    <mask id="mask-2" fill="white">
                        <use xlink:href="#path-1"></use>
                    </mask>
                    <g id="Clip-5"></g>
                    <path d="M47.0478187,23.6096667 C47.0478187,36.5811919 36.5030366,47.0963737 23.4955836,47.0963737 C10.4886068,47.0963737 -0.0561753631,36.5811919 -0.0561753631,23.6096667 C-0.0561753631,10.6381414 10.4886068,0.122484848 23.4955836,0.122484848 C36.5030366,0.122484848 47.0478187,10.6381414 47.0478187,23.6096667" id="Fill-4" fill="#F72697" mask="url(#mask-2)"></path>
                    <path d="M7.95262238,41.781101 C7.95262238,41.781101 3.78374395,17.7242222 16.0728187,12.0329495 C27.4302394,6.77369697 30.9745239,16.596697 30.9745239,16.596697 C30.9745239,16.596697 32.8159333,22.7190404 24.2215788,24.2776364 C15.6267483,25.8357576 16.2684804,29.4813434 16.1009064,30.5386061 C15.9333324,31.5963434 19.561404,46.4008687 21.4866003,48.6549697 L9.34796127,48.3487576" id="Fill-6" fill="#FFFFFF" mask="url(#mask-2)"></path>
                    <path d="M15.3753873,51.4099293 C12.305737,42.6161818 8.73384077,31.9300909 10.6314255,19.2961111 C10.6314255,19.2961111 4.49260086,24.6393939 10.2967536,53.5804747 C10.2967536,53.5804747 18.4450377,60.2036768 15.3753873,51.4099293" id="Fill-7" fill="#E5E5E5" mask="url(#mask-2)"></path>
                    <path d="M28.3980742,19.1389697 C27.9262964,19.5268384 27.625901,20.1136263 27.625901,20.7711515 C27.625901,21.9390303 28.5751694,22.8861515 29.746759,22.8861515 C30.0895239,22.8861515 30.4137224,22.8049697 30.7007881,22.6606465 L30.7069769,22.6554242 C30.9054949,22.5234444 33.6404734,20.7711515 39.0109333,20.7711515 L39.0671087,20.7711515 C40.0530339,20.7711515 40.8528187,19.9735758 40.8528187,18.989899 C40.8528187,18.006697 40.0530339,17.2091212 39.0671087,17.2091212 L39.0109333,17.2091212 C34.8258687,17.2091212 31.5500834,13.2017778 31.5500834,13.2017778 C31.0859225,12.6453737 30.5084588,12.2000606 29.746759,12.2000606 C28.5751694,12.2000606 27.625901,13.1467071 27.625901,14.3150606 C27.625901,14.9645152 27.9196315,15.5456061 28.381412,15.9339495 C28.381412,15.9339495 29.2445132,16.6527172 29.2445132,17.5428687 C29.2445132,18.4334949 28.3980742,19.1389697 28.3980742,19.1389697" id="Fill-8" fill="#FFBD15" mask="url(#mask-2)"></path>
                    <path d="M21.7412937,17.5177071 C20.743943,17.5177071 19.8113367,17.0491313 19.3652663,16.3241919 C19.1477058,15.9705051 19.2591044,15.5076263 19.6137708,15.2906667 C19.9684373,15.0741818 20.4325982,15.184798 20.6496826,15.5384848 C20.7953577,15.7753838 21.217149,16.0146566 21.7412937,16.0146566 C22.3273265,16.0146566 22.7486417,15.8014949 22.8471867,15.6006768 C23.0299946,15.228 23.4817778,15.0741818 23.8550108,15.2564848 C24.2287197,15.4392626 24.38344,15.8893232 24.200156,16.262 C23.8197821,17.0363131 22.8776547,17.5177071 21.7412937,17.5177071" id="Fill-9" fill="#000B38" mask="url(#mask-2)"></path>
                    <path d="M39.0671087,19.7969697 L39.0109333,19.7969697 C33.6304761,19.7969697 30.7203066,21.4903939 30.2156805,21.8122727 C30.0685772,21.8787374 29.9110005,21.9119697 29.746759,21.9119697 C29.1155003,21.9119697 28.602305,21.4001919 28.602305,20.7711515 C28.602305,20.4293333 28.754645,20.1079293 29.0193357,19.8900202 L29.0245724,19.8862222 C29.1469204,19.7841515 30.2209172,18.8512727 30.2209172,17.5428687 C30.2209172,16.2349394 29.1321625,15.2897172 29.0107665,15.188596 C28.7513125,14.9706869 28.602305,14.6526061 28.602305,14.3150606 C28.602305,13.6860202 29.1155003,13.1742424 29.746759,13.1742424 C29.9652717,13.1742424 30.3118451,13.2411818 30.7964766,13.8213232 C30.9883297,14.054899 34.4473991,18.183303 39.0109333,18.183303 L39.0671087,18.183303 C39.5131791,18.183303 39.8759387,18.5450606 39.8759387,18.989899 C39.8759387,19.4352121 39.5131791,19.7969697 39.0671087,19.7969697 M39.0671087,16.2349394 L39.0109333,16.2349394 C35.3514416,16.2349394 32.3360624,12.6216364 32.3070226,12.5865051 L32.3008338,12.5789091 C31.5524637,11.6811616 30.692695,11.2258788 29.746759,11.2258788 C29.3359172,11.2258788 28.9445939,11.3065859 28.5856428,11.4518586 C27.7539618,10.9457778 25.8382867,9.93836364 23.3237251,9.61126263 C21.3494944,9.35489899 19.4138246,9.5690101 17.570035,10.2488485 C15.2958849,11.0867778 13.1726466,12.6339798 11.2593518,14.8477273 C9.23323023,17.1910808 7.83551103,20.4663636 7.10427918,24.5824242 C6.53110005,27.8097576 6.36162184,31.5688081 6.60060516,35.7565556 C7.00573427,42.8469091 8.42297203,48.6445253 8.48343195,48.8880707 C8.5929263,49.3319596 8.99186659,49.6291515 9.43079613,49.6291515 C9.50791824,49.6291515 9.58646853,49.6196566 9.66501883,49.6006667 C10.1886875,49.4720101 10.5090775,48.9440909 10.3800646,48.4218687 C10.3657827,48.3639495 8.94140398,42.5307273 8.54912856,35.6150808 C8.32061861,31.584 8.48247983,27.9811414 9.03042765,24.9071515 C9.70024744,21.148101 10.9475309,18.1913737 12.7384777,16.1195758 C14.4199301,14.1745354 16.2575309,12.8200808 18.1998655,12.0932424 C19.7337386,11.5197475 21.3461619,11.3312727 22.9933378,11.5330404 C24.7500081,11.7485758 26.1858123,12.3676465 27.03844,12.8177071 C26.7908876,13.261596 26.649021,13.7719495 26.649021,14.3150606 C26.649021,15.226101 27.0493895,16.0858687 27.7501533,16.6764545 C27.9124906,16.8160303 28.2676331,17.2281111 28.2676331,17.5428687 C28.2676331,17.8590505 27.9334373,18.2507172 27.7687197,18.3940909 C27.0570065,18.9832525 26.649021,19.8487172 26.649021,20.7711515 C26.649021,21.3114141 26.7894594,21.8193939 27.0346315,22.2618586 C26.4209871,22.5780404 25.5059952,22.977303 24.375347,23.2540808 C23.3741877,23.4990505 22.3792173,23.6110909 21.3937682,23.5925758 C21.3418774,23.5868788 21.2890344,23.5859293 21.2357154,23.5887778 C19.5009441,23.5308586 17.7956885,23.0646566 16.1385153,22.191596 C15.6615008,21.9404545 15.0707074,22.1227576 14.8188704,22.5984545 C14.5670334,23.0741515 14.7493653,23.6633131 15.2263798,23.9144545 C16.1804088,24.4167374 17.1139672,24.7794444 18.0132491,25.0334343 C17.212036,25.5998081 16.3993975,26.3717475 15.7767079,27.4109697 C14.57227,29.4215253 14.3742281,31.9016061 15.1887708,34.7823737 C17.5281415,43.0591212 20.850581,50.0611717 20.8839053,50.1309596 C21.0510032,50.4813232 21.4013852,50.6864141 21.766525,50.6864141 C21.9069634,50.6864141 22.0497821,50.6560303 22.1854599,50.5919394 C22.6724718,50.3607374 22.8795589,49.7796465 22.6477165,49.2939798 C22.6148682,49.2256162 19.3614578,42.3650404 17.0687413,34.2539798 C16.4084427,31.916798 16.5345992,29.9565657 17.4438784,28.4264545 C18.6568854,26.3859899 20.9453174,25.6634242 21.4185234,25.5328687 C21.4885046,25.5342929 21.5584857,25.5347677 21.6275148,25.5347677 C22.8900323,25.5347677 24.009731,25.3553131 24.9275793,25.1245859 C26.6575901,24.6892424 27.9420065,24.0155758 28.5818343,23.6324545 C28.9417375,23.7786768 29.334489,23.8598586 29.746759,23.8598586 C30.2294863,23.8598586 30.7112614,23.7459192 31.1406697,23.5299091 L31.2235046,23.4881313 L31.2730151,23.4501515 C31.5600807,23.266899 34.0965412,21.7448586 39.0109333,21.7448586 L39.0671087,21.7448586 C40.5900323,21.7448586 41.8296988,20.5090909 41.8296988,18.989899 C41.8296988,17.4711818 40.5900323,16.2349394 39.0671087,16.2349394" id="Fill-10" fill="#000B38" mask="url(#mask-2)"></path>
                </g>
                <g id="Group-4" transform="translate(55.118343, 9.559322)">
                    <path d="M79.5382694,12.0374656 L79.5382694,6.83575154 L78.2435641,6.83575154 L76.7372243,10.7875392 L75.2059863,6.83575154 L73.8988319,6.83575154 L73.8988319,12.0374656 L74.74537,12.0374656 L74.74537,7.69428688 L74.7702682,7.69428688 L76.4508953,12.0374656 L76.9862061,12.0374656 L78.6668332,7.69428688 L78.6917313,7.69428688 L78.6917313,12.0374656 L79.5382694,12.0374656 Z M72.8531084,7.53015512 L71.2471759,7.53015512 L71.2471759,12.0374656 L70.4006378,12.0374656 L70.4006378,7.53015512 L68.7947053,7.53015512 L68.7947053,6.83575154 L72.8531084,6.83575154 L72.8531084,7.53015512 Z" id="™" fill="#51576F" fill-rule="nonzero"></path>
                    <g id="Group-3">
                        <mask id="mask-4" fill="white">
                            <use xlink:href="#path-3"></use>
                        </mask>
                        <g id="Clip-2"></g>
                        <polygon id="Fill-1" fill="#000B38" mask="url(#mask-4)" points="-0.0311227234 27.4815478 68.0031507 27.4815478 68.0031507 -0.0420850656 -0.0311227234 -0.0420850656"></polygon>
                    </g>
                </g>
            </g>
        </g>
    </g>
</svg>